<svg width="27" height="24" viewBox="0 0 27 24" fill="none" xmlns="http://www.w3.org/2000/svg">
<path fill-rule="evenodd" clip-rule="evenodd" d="M17.3671 19C17.3671 17.3431 18.825 16 20.6234 16H22.7943C23.3938 16 23.8797 16.4477 23.8797 17C23.8797 17.5523 23.3938 18 22.7943 18H20.6234C20.0239 18 19.538 18.4477 19.538 19V21C19.538 21.5523 19.052 22 18.4525 22C17.853 22 17.3671 21.5523 17.3671 21V19Z" fill="#DCCCFF"/>
<path fill-rule="evenodd" clip-rule="evenodd" d="M17.3671 5C17.3671 6.65685 18.825 8 20.6234 8H22.7943C23.3938 8 23.8797 7.55228 23.8797 7C23.8797 6.44772 23.3938 6 22.7943 6H20.6234C20.0239 6 19.538 5.55228 19.538 5V3C19.538 2.44772 19.052 2 18.4525 2C17.853 2 17.3671 2.44772 17.3671 3V5Z" fill="#DCCCFF"/>
<path fill-rule="evenodd" clip-rule="evenodd" d="M8.68353 5C8.68353 6.65685 7.22562 8 5.4272 8H3.25632C2.65684 8 2.17087 7.55228 2.17087 7C2.17087 6.44772 2.65684 6 3.25632 6H5.4272C6.02668 6 6.51265 5.55228 6.51265 5V3C6.51265 2.44772 6.99862 2 7.59809 2C8.19756 2 8.68353 2.44772 8.68353 3V5Z" fill="#DCCCFF"/>
<path fill-rule="evenodd" clip-rule="evenodd" d="M8.68353 19C8.68353 17.3431 7.22562 16 5.4272 16H3.25632C2.65684 16 2.17087 16.4477 2.17087 17C2.17087 17.5523 2.65684 18 3.25632 18H5.4272C6.02668 18 6.51265 18.4477 6.51265 19V21C6.51265 21.5523 6.99862 22 7.59809 22C8.19756 22 8.68353 21.5523 8.68353 21V19Z" fill="#DCCCFF"/>
</svg>
