<svg width="17" height="17" viewBox="0 0 17 17" fill="none" xmlns="http://www.w3.org/2000/svg">
<path d="M11.8645 2.52175V1.41675C11.8645 1.12633 11.6237 0.885498 11.3333 0.885498C11.0429 0.885498 10.802 1.12633 10.802 1.41675V2.47925H6.19788V1.41675C6.19788 1.12633 5.95704 0.885498 5.66663 0.885498C5.37621 0.885498 5.13538 1.12633 5.13538 1.41675V2.52175C3.22288 2.69883 2.29496 3.83925 2.15329 5.53216C2.13913 5.73758 2.30913 5.90758 2.50746 5.90758H14.4925C14.6979 5.90758 14.8679 5.7305 14.8466 5.53216C14.705 3.83925 13.777 2.69883 11.8645 2.52175Z" fill="#DCCCFF"/>
<path d="M14.1667 6.96997H2.83333C2.44375 6.96997 2.125 7.28872 2.125 7.6783V12.0416C2.125 14.1666 3.1875 15.5833 5.66667 15.5833H11.3333C13.8125 15.5833 14.875 14.1666 14.875 12.0416V7.6783C14.875 7.28872 14.5562 6.96997 14.1667 6.96997ZM6.52375 12.8987C6.48833 12.9271 6.45292 12.9625 6.4175 12.9837C6.375 13.0121 6.3325 13.0333 6.29 13.0475C6.2475 13.0687 6.205 13.0829 6.1625 13.09C6.11292 13.0971 6.07042 13.1041 6.02083 13.1041C5.92875 13.1041 5.83667 13.0829 5.75167 13.0475C5.65958 13.0121 5.58875 12.9625 5.51792 12.8987C5.39042 12.7641 5.3125 12.58 5.3125 12.3958C5.3125 12.2116 5.39042 12.0275 5.51792 11.8929C5.58875 11.8291 5.65958 11.7796 5.75167 11.7441C5.87917 11.6875 6.02083 11.6733 6.1625 11.7016C6.205 11.7087 6.2475 11.7229 6.29 11.7441C6.3325 11.7583 6.375 11.7796 6.4175 11.8079C6.45292 11.8362 6.48833 11.8646 6.52375 11.8929C6.65125 12.0275 6.72917 12.2116 6.72917 12.3958C6.72917 12.58 6.65125 12.7641 6.52375 12.8987ZM6.52375 10.4196C6.38917 10.5471 6.205 10.625 6.02083 10.625C5.83667 10.625 5.6525 10.5471 5.51792 10.4196C5.39042 10.285 5.3125 10.1008 5.3125 9.91664C5.3125 9.73247 5.39042 9.5483 5.51792 9.41372C5.71625 9.21539 6.02792 9.15164 6.29 9.26497C6.38208 9.30039 6.46 9.34997 6.52375 9.41372C6.65125 9.5483 6.72917 9.73247 6.72917 9.91664C6.72917 10.1008 6.65125 10.285 6.52375 10.4196ZM9.00292 12.8987C8.86833 13.0262 8.68417 13.1041 8.5 13.1041C8.31583 13.1041 8.13167 13.0262 7.99708 12.8987C7.86958 12.7641 7.79167 12.58 7.79167 12.3958C7.79167 12.2116 7.86958 12.0275 7.99708 11.8929C8.25917 11.6308 8.74083 11.6308 9.00292 11.8929C9.13042 12.0275 9.20833 12.2116 9.20833 12.3958C9.20833 12.58 9.13042 12.7641 9.00292 12.8987ZM9.00292 10.4196C8.9675 10.4479 8.93208 10.4762 8.89667 10.5046C8.85417 10.5329 8.81167 10.5541 8.76917 10.5683C8.72667 10.5896 8.68417 10.6037 8.64167 10.6108C8.59208 10.6179 8.54958 10.625 8.5 10.625C8.31583 10.625 8.13167 10.5471 7.99708 10.4196C7.86958 10.285 7.79167 10.1008 7.79167 9.91664C7.79167 9.73247 7.86958 9.5483 7.99708 9.41372C8.06083 9.34997 8.13875 9.30039 8.23083 9.26497C8.49292 9.15164 8.80458 9.21539 9.00292 9.41372C9.13042 9.5483 9.20833 9.73247 9.20833 9.91664C9.20833 10.1008 9.13042 10.285 9.00292 10.4196ZM11.4821 12.8987C11.3475 13.0262 11.1633 13.1041 10.9792 13.1041C10.795 13.1041 10.6108 13.0262 10.4762 12.8987C10.3488 12.7641 10.2708 12.58 10.2708 12.3958C10.2708 12.2116 10.3488 12.0275 10.4762 11.8929C10.7383 11.6308 11.22 11.6308 11.4821 11.8929C11.6096 12.0275 11.6875 12.2116 11.6875 12.3958C11.6875 12.58 11.6096 12.7641 11.4821 12.8987ZM11.4821 10.4196C11.4467 10.4479 11.4112 10.4762 11.3758 10.5046C11.3333 10.5329 11.2908 10.5541 11.2483 10.5683C11.2058 10.5896 11.1633 10.6037 11.1208 10.6108C11.0712 10.6179 11.0217 10.625 10.9792 10.625C10.795 10.625 10.6108 10.5471 10.4762 10.4196C10.3488 10.285 10.2708 10.1008 10.2708 9.91664C10.2708 9.73247 10.3488 9.5483 10.4762 9.41372C10.5471 9.34997 10.6179 9.30039 10.71 9.26497C10.8375 9.2083 10.9792 9.19414 11.1208 9.22247C11.1633 9.22955 11.2058 9.24372 11.2483 9.26497C11.2908 9.27914 11.3333 9.30039 11.3758 9.32872C11.4112 9.35705 11.4467 9.38539 11.4821 9.41372C11.6096 9.5483 11.6875 9.73247 11.6875 9.91664C11.6875 10.1008 11.6096 10.285 11.4821 10.4196Z" fill="#DCCCFF"/>
</svg>
