<svg width="20" height="20" viewBox="0 0 20 20" fill="none" xmlns="http://www.w3.org/2000/svg">
<path d="M18.0267 10.7048C17.8111 9.99173 17.4546 9.36983 16.9819 8.86402C16.3766 8.17579 15.5723 7.70314 14.6685 7.49584C14.2124 5.42285 12.9355 3.9303 11.1195 3.37474C9.14603 2.76113 6.85745 3.35815 5.42294 4.859C4.16256 6.17742 3.74796 7.99336 4.23719 9.92539C2.57879 10.3317 1.75789 11.7165 1.66668 13.0349C1.65839 13.1261 1.65839 13.209 1.65839 13.2919C1.65839 14.8508 2.6783 16.6004 4.9503 16.7663H13.5574C14.7348 16.7663 15.8625 16.3268 16.7249 15.5391C18.0765 14.3533 18.574 12.5042 18.0267 10.7048Z" fill="#DCCCFF"/>
</svg>
