<svg width="20" height="20" viewBox="0 0 20 20" fill="none" xmlns="http://www.w3.org/2000/svg">
<path d="M13.7564 6.1444L5.23223 14.6685C4.83422 15.0666 4.15428 14.9754 3.91381 14.4695C3.48263 13.5823 3.23387 12.579 3.23387 11.5259C3.21729 6.94872 7.86079 3.03491 9.43626 1.83258C9.74307 1.6004 10.1577 1.6004 10.4562 1.83258C11.1776 2.37985 12.5292 3.51585 13.7978 5.0084C14.0798 5.34008 14.0632 5.8376 13.7564 6.1444Z" fill="#DCCCFF"/>
<path d="M16.6669 11.534C16.6669 15.2323 13.6569 18.2422 9.95038 18.2422C8.46611 18.2422 7.08136 17.7613 5.96194 16.9321C5.55563 16.6336 5.52247 16.0366 5.87902 15.68L14.229 7.33001C14.6188 6.94029 15.2738 7.02321 15.5392 7.50414C16.2191 8.75623 16.6752 10.1161 16.6669 11.534Z" fill="#DCCCFF"/>
</svg>
