<svg width="77" height="52" viewBox="0 0 77 52" fill="none" xmlns="http://www.w3.org/2000/svg">
<path fill-rule="evenodd" clip-rule="evenodd" d="M40.6647 35.5833C41.0379 35.3689 41.2957 34.9919 41.2836 34.5616C41.2453 33.2027 40.527 32.7563 40.008 32.6863C39.8812 32.6692 39.7584 32.6963 39.6371 32.7372C33.4449 34.8261 20.5184 39.1535 16.9275 40.2308C12.3952 41.5905 4.46359 41.8171 2.42404 39.3244C0.792407 37.3301 -0.0869874 40.0354 0.00680318 41.8171C0.34259 48.1971 4.39703 49.2703 6.79445 49.9048C6.98579 49.9555 7.16657 50.0033 7.33406 50.0509C11.7154 51.2942 31.0051 41.134 40.6647 35.5833Z" fill="#DCCCFF"/>
<path d="M20.714 36.5649L24.7203 35.5633C24.9594 35.5036 25.1794 35.3833 25.3415 35.1978C28.4291 31.6658 30.1528 21.5179 30.3734 16.7384C30.5547 12.8104 32.6395 14.2519 34.0748 14.8499C37.7006 16.3607 39.438 24.0656 45.7833 36.7562C52.1285 49.4467 63.0817 54.4322 65.8011 48.7668C67.7874 44.6286 64.9711 34.634 62.8946 28.9598C62.6063 28.1718 61.6722 27.8574 60.9526 28.2891L57.2959 30.4831C56.715 30.8316 56.4797 31.5535 56.736 32.1806C58.3397 36.1046 60.5493 42.1818 59.2292 41.7417C57.4163 41.1374 55.981 38.2669 53.1861 34.2634C50.9501 31.0605 53.1861 30.4421 54.7724 29.58C65.3478 24.1412 75.3945 13.8236 76.0743 11.7528C76.7345 9.74199 77.7362 5.25649 65.1968 6.61619C56.3139 7.57939 54.7124 15.5632 55.0739 20.7706C55.138 21.6936 56.1383 22.1782 56.9523 21.7384L61.1847 19.4519C61.6109 19.2217 61.8803 18.7817 61.9039 18.298C62.1237 13.7908 63.1445 9.93989 69.5025 9.93989C74.8808 9.93989 71.2902 14.4722 68.8226 16.7384C54.0113 28.0066 49.7374 28.0814 49.3606 26.5946C49.3298 26.473 49.3128 26.3447 49.2728 26.2258C43.3916 8.77431 31.8163 1.90327 26.7475 0.648626C23.172 -0.283019 15.0541 -0.922581 11.1865 3.97233C7.31895 8.86724 9.77014 10.1977 11.1865 9.33558C19.526 4.25938 23.9274 7.62337 25.0857 9.93989C28.7941 18.1863 23.8215 27.9725 19.171 34.0733C18.3382 35.1657 19.3814 36.8981 20.714 36.5649Z" fill="#DCCCFF"/>
</svg>
