<svg width="20" height="20" viewBox="0 0 20 20" fill="none" xmlns="http://www.w3.org/2000/svg">
<path d="M15.3236 10.1576C15.5558 10.1576 15.7548 9.95864 15.7382 9.72647C15.5143 6.71648 13.0101 4.35327 9.95038 4.35327C6.89065 4.35327 4.38647 6.71648 4.16259 9.72647C4.146 9.95864 4.34501 10.1576 4.57719 10.1576H15.3236Z" fill="#DCCCFF"/>
<path d="M18.2424 10.7795H18.176C17.72 10.7795 17.3468 10.4063 17.3468 9.95027C17.3468 9.49421 17.72 9.12107 18.176 9.12107C18.6321 9.12107 19.0384 9.49421 19.0384 9.95027C19.0384 10.4063 18.6984 10.7795 18.2424 10.7795ZM1.72476 10.7795H1.65842C1.20236 10.7795 0.829224 10.4063 0.829224 9.95027C0.829224 9.49421 1.20236 9.12107 1.65842 9.12107C2.11448 9.12107 2.52079 9.49421 2.52079 9.95027C2.52079 10.4063 2.18081 10.7795 1.72476 10.7795ZM15.7631 4.96679C15.5475 4.96679 15.3402 4.88387 15.1743 4.72633C14.8509 4.40294 14.8509 3.88055 15.1743 3.55716L15.2821 3.44936C15.6055 3.12598 16.1279 3.12598 16.4513 3.44936C16.7747 3.77275 16.7747 4.29514 16.4513 4.61853L16.3435 4.72633C16.186 4.88387 15.9787 4.96679 15.7631 4.96679ZM4.13772 4.96679C3.92213 4.96679 3.71483 4.88387 3.54899 4.72633L3.44119 4.61024C3.11781 4.28685 3.11781 3.76446 3.44119 3.44107C3.76458 3.11769 4.28697 3.11769 4.61036 3.44107L4.71816 3.54887C5.04154 3.87225 5.04154 4.39465 4.71816 4.71804C4.56061 4.88387 4.34502 4.96679 4.13772 4.96679ZM9.95039 2.52066C9.49433 2.52066 9.12119 2.18069 9.12119 1.72463V1.6583C9.12119 1.20224 9.49433 0.829102 9.95039 0.829102C10.4064 0.829102 10.7796 1.20224 10.7796 1.6583C10.7796 2.11436 10.4064 2.52066 9.95039 2.52066Z" fill="#DCCCFF"/>
<path d="M16.5839 13.06H3.31678C2.97681 13.06 2.69489 12.778 2.69489 12.4381C2.69489 12.0981 2.97681 11.8162 3.31678 11.8162H16.5839C16.9239 11.8162 17.2058 12.0981 17.2058 12.4381C17.2058 12.778 16.9239 13.06 16.5839 13.06Z" fill="#DCCCFF"/>
<path d="M14.9255 15.5475H4.97517C4.6352 15.5475 4.35327 15.2656 4.35327 14.9256C4.35327 14.5856 4.6352 14.3037 4.97517 14.3037H14.9255C15.2655 14.3037 15.5474 14.5856 15.5474 14.9256C15.5474 15.2656 15.2655 15.5475 14.9255 15.5475Z" fill="#DCCCFF"/>
<path d="M12.438 18.0351H7.46278C7.12281 18.0351 6.84088 17.7531 6.84088 17.4132C6.84088 17.0732 7.12281 16.7913 7.46278 16.7913H12.438C12.7779 16.7913 13.0599 17.0732 13.0599 17.4132C13.0599 17.7531 12.7779 18.0351 12.438 18.0351Z" fill="#DCCCFF"/>
</svg>
