<svg width="24" height="24" viewBox="0 0 24 24" fill="none" xmlns="http://www.w3.org/2000/svg">
<path fill-rule="evenodd" clip-rule="evenodd" d="M10.2484 7.15855C9.46863 6.98506 8.70111 6.76035 7.95088 6.48588C7.72065 6.40299 7.66643 6.08855 7.87488 5.94032C8.15058 5.74787 8.43852 5.57357 8.73688 5.41855C8.77511 5.39848 8.81711 5.3866 8.86019 5.38366C8.90327 5.38071 8.94649 5.38677 8.9871 5.40143C10.7489 6.03943 12.6047 6.37921 14.4449 6.18766C14.9953 6.13056 15.5397 6.02534 16.0718 5.87321C16.2569 5.81277 16.3502 5.90277 16.4984 6.01121C16.7742 6.21206 17.0354 6.43209 17.2802 6.66966C17.3218 6.70844 17.3519 6.75787 17.3673 6.81257C17.3827 6.86726 17.3829 6.92514 17.3678 6.97993C17.3526 7.03471 17.3228 7.08429 17.2814 7.1233C17.2401 7.16232 17.1889 7.18926 17.1333 7.20121C14.8293 7.68188 12.5487 7.66788 10.2493 7.15855M6.78888 11.8828C6.52821 11.6828 6.27776 11.4828 6.03932 11.289C5.98269 11.2407 5.94526 11.1737 5.9338 11.1002C5.92234 11.0266 5.93763 10.9514 5.97688 10.8882C6.01613 10.825 6.07674 10.7779 6.14773 10.7555C6.21871 10.7332 6.29536 10.737 6.36376 10.7663C9.27395 12.0964 12.5156 12.5254 15.6715 11.9979C16.8404 11.802 17.9838 11.4766 19.0807 11.0277C19.1256 11.0087 19.1743 11.0006 19.223 11.004C19.2716 11.0074 19.3188 11.0221 19.3607 11.0471C19.4026 11.072 19.438 11.1065 19.4641 11.1477C19.4903 11.1888 19.5064 11.2356 19.5111 11.2841L19.5415 11.757C19.5433 11.8145 19.5444 11.8752 19.5449 11.9392C19.5494 12.0053 19.5328 12.0711 19.4974 12.127C19.462 12.183 19.4096 12.2262 19.348 12.2503C15.6179 13.7179 11.4888 13.8183 7.69176 12.5339C7.66306 12.5242 7.63596 12.5104 7.61132 12.4928C7.32621 12.2888 7.05221 12.0852 6.78888 11.8828ZM14.002 15.079C15.5806 15.0109 17.1446 14.7467 18.658 14.2925C18.7146 14.2758 18.7747 14.2755 18.8315 14.2917C18.8882 14.3079 18.9392 14.3399 18.9785 14.3839C19.0177 14.428 19.0436 14.4823 19.0532 14.5405C19.0627 14.5987 19.0555 14.6585 19.0324 14.7128C18.9294 14.9718 18.8129 15.2253 18.6833 15.4721C18.6618 15.5127 18.6316 15.548 18.5948 15.5755C18.5581 15.603 18.5156 15.622 18.4707 15.6312C17.9982 15.7497 17.525 15.8511 17.0511 15.9352C16.5742 16.0201 16.091 16.0888 15.6015 16.1412C15.5626 16.1454 15.5233 16.1421 15.4855 16.1317C15.2372 16.0699 14.9798 16.002 14.7133 15.9281C14.4331 15.8499 14.16 15.7694 13.8982 15.6865C13.8266 15.6639 13.7656 15.616 13.7265 15.5519C13.6874 15.4877 13.6728 15.4116 13.6854 15.3376C13.6981 15.2635 13.7371 15.1965 13.7953 15.149C13.8535 15.1015 13.9269 15.0766 14.002 15.079ZM19.4744 9.57232C18.8313 7.62788 17.4425 6.01833 15.6132 5.09743C13.7839 4.17653 11.6638 4.01963 9.71888 4.66121C8.09332 5.19899 6.71576 6.23543 5.76332 7.63188C5.7143 7.70366 5.64262 7.75692 5.55975 7.78315C5.47688 7.80938 5.3876 7.80705 5.30621 7.77655C2.97488 7.06543 2.14421 7.1081 2.07132 7.49788C1.9791 7.99055 2.6651 8.98677 3.36621 9.90454C5.48221 12.6734 7.57799 14.3008 9.98843 15.417C12.4178 16.5419 15.1884 17.1599 18.6218 17.9003C19.6511 18.1225 20.7773 18.2737 21.4718 18.1434C21.69 18.1025 21.8458 18.0403 21.9078 17.9508C21.9553 17.8823 21.9462 17.7579 21.8609 17.5621C21.6287 17.0288 20.9324 16.2321 19.5633 15.0803C19.4854 15.0297 19.4281 14.9529 19.4018 14.8638C19.3754 14.7748 19.3817 14.6792 19.4195 14.5943C20.0011 12.974 20.021 11.2052 19.4762 9.5721L19.4744 9.57232ZM4.41577 12.339C4.47674 13.7324 4.91365 15.0833 5.68016 16.2485C6.44668 17.4137 7.51422 18.3498 8.76961 18.9574C10.025 19.5651 11.4214 19.8217 12.8108 19.7001C14.2002 19.5785 15.5308 19.0831 16.6615 18.2665C11.6838 17.1537 7.94132 16.037 4.41577 12.339ZM17.6427 18.4832L17.6282 18.4963C16.347 19.5792 14.7742 20.259 13.1076 20.4502C11.441 20.6413 9.75507 20.3353 8.26199 19.5705C5.26221 18.0348 3.46843 14.8934 3.64443 11.5385C3.64529 11.5228 3.64707 11.5072 3.64977 11.4917C3.34858 11.1405 3.04776 10.7685 2.74732 10.3754C1.94176 9.32121 1.15977 8.1401 1.30665 7.35543C1.46732 6.4961 2.51465 6.15432 5.28443 6.9621C6.4357 5.39634 8.08851 4.2721 9.96772 3.77653C11.8469 3.28095 13.8392 3.44392 15.6129 4.23832C19.596 6.01899 21.5658 10.511 20.2267 14.6257C21.5869 15.7885 22.3035 16.6394 22.5702 17.2519C22.7767 17.7261 22.748 18.1012 22.5442 18.3943C22.3553 18.6665 22.0284 18.8281 21.6129 18.9054C20.8015 19.0574 19.5684 18.8985 18.4589 18.6594L17.6427 18.4832ZM13.9915 17.9857C14.1646 18.0285 14.2994 18.0615 14.396 18.0848C14.7184 18.1481 14.742 18.5465 14.4849 18.6719L14.4647 18.6817L14.4424 18.6919C14.4227 18.7014 14.402 18.7089 14.3807 18.7141C12.8967 19.0741 11.3778 19.1197 9.88888 18.7381C9.42627 18.6197 8.97504 18.4606 8.54043 18.2628C8.41643 18.2105 8.04132 17.9021 7.92488 17.8003C7.87181 17.7523 7.83691 17.6875 7.82607 17.6167C7.81522 17.546 7.8291 17.4737 7.86535 17.412C7.9016 17.3503 7.95802 17.303 8.02508 17.278C8.09215 17.2531 8.16578 17.252 8.23354 17.275C9.93576 17.8865 11.6749 18.0665 13.4682 17.8734C13.5049 17.8696 13.542 17.8723 13.5778 17.8817C13.6682 17.9052 13.8058 17.9397 13.9915 17.9857ZM9.07199 9.81921C7.9836 9.52595 6.92621 9.12787 5.91465 8.63055C5.87586 8.61163 5.84144 8.58485 5.81356 8.55191C5.78567 8.51897 5.76495 8.48059 5.7527 8.43921C5.74046 8.39782 5.73695 8.35435 5.74242 8.31154C5.74788 8.26873 5.76219 8.22753 5.78443 8.19055L6.10265 7.70588C6.13391 7.66143 6.16925 7.61306 6.20865 7.56077C6.25011 7.49464 6.31492 7.44651 6.3902 7.42593C6.46549 7.40535 6.54576 7.41382 6.6151 7.44966C9.28091 8.83611 12.3176 9.34181 15.2889 8.8941C16.267 8.74687 17.227 8.49812 18.1535 8.15188C18.2234 8.12165 18.302 8.1181 18.3743 8.14189C18.4466 8.16568 18.5077 8.21518 18.546 8.28099C18.6593 8.47632 18.7578 8.66255 18.8522 8.86499C18.8703 8.90373 18.8802 8.94578 18.8813 8.98851C18.8824 9.03124 18.8747 9.07374 18.8586 9.11336C18.8425 9.15298 18.8185 9.18886 18.788 9.21878C18.7574 9.24869 18.721 9.27198 18.6811 9.28721C15.5593 10.4761 12.3022 10.6812 9.07199 9.81921Z" fill="#855FFF"/>
</svg>
